<svg width="22" height="12" viewBox="0 0 22 12" fill="white" xmlns="http://www.w3.org/2000/svg">
<path d="M1.70711 0.292897C1.31658 -0.0976276 0.683418 -0.0976276 0.292893 0.292897C-0.0976311 0.683421 -0.0976311 1.31659 0.292893 1.70711L1.70711 0.292897ZM11 11L10.2929 11.7071C10.4804 11.8946 10.7348 12 11 12C11.2652 12 11.5196 11.8946 11.7071 11.7071L11 11ZM21.7071 1.7071C22.0976 1.31658 22.0976 0.683415 21.7071 0.292891C21.3166 -0.0976329 20.6834 -0.0976326 20.2929 0.292892L21.7071 1.7071ZM0.292893 1.70711L10.2929 11.7071L11.7071 10.2929L1.70711 0.292897L0.292893 1.70711ZM11.7071 11.7071L21.7071 1.7071L20.2929 0.292892L10.2929 10.2929L11.7071 11.7071Z" fill="#FAFAFA"/>
</svg>
