<svg width="22" height="12" viewBox="0 0 22 12" fill="none" xmlns="http://www.w3.org/2000/svg">
<path d="M20.2929 11.7071C20.6834 12.0976 21.3166 12.0976 21.7071 11.7071C22.0976 11.3166 22.0976 10.6834 21.7071 10.2929L20.2929 11.7071ZM11 0.999994L11.7071 0.292888C11.5196 0.105352 11.2652 -5.61941e-06 11 -5.6426e-06C10.7348 -5.66579e-06 10.4804 0.105351 10.2929 0.292888L11 0.999994ZM0.292893 10.2929C-0.0976314 10.6834 -0.0976315 11.3166 0.292894 11.7071C0.683418 12.0976 1.31658 12.0976 1.70711 11.7071L0.292893 10.2929ZM21.7071 10.2929L11.7071 0.292888L10.2929 1.7071L20.2929 11.7071L21.7071 10.2929ZM10.2929 0.292888L0.292893 10.2929L1.70711 11.7071L11.7071 1.7071L10.2929 0.292888Z" fill="#4E4A48"/>
</svg>
