<svg width="35" height="3" viewBox="0 0 35 3" fill="none" xmlns="http://www.w3.org/2000/svg">
<g clip-path="url(#clip0)">
<path d="M33.7762 2.5C33.1004 2.5 32.5524 1.94036 32.5524 1.25C32.5524 0.559644 33.1004 0 33.7762 0C34.4521 0 35 0.559644 35 1.25C35 1.94036 34.4521 2.5 33.7762 2.5Z" fill="#B2B2B2"/>
<path d="M29.119 2.5C28.4431 2.5 27.8952 1.94036 27.8952 1.25C27.8952 0.559644 28.4431 0 29.119 0C29.7949 0 30.3428 0.559644 30.3428 1.25C30.3428 1.94036 29.7949 2.5 29.119 2.5Z" fill="#B2B2B2"/>
<path d="M24.461 2.5C23.7852 2.5 23.2373 1.94036 23.2373 1.25C23.2373 0.559644 23.7852 0 24.461 0C25.1369 0 25.6848 0.559644 25.6848 1.25C25.6848 1.94036 25.1369 2.5 24.461 2.5Z" fill="#B2B2B2"/>
<path d="M19.8251 2.5C19.1492 2.5 18.6013 1.94036 18.6013 1.25C18.6013 0.559644 19.1492 0 19.8251 0C20.5009 0 21.0488 0.559644 21.0488 1.25C21.0488 1.94036 20.5009 2.5 19.8251 2.5Z" fill="#B2B2B2"/>
<path d="M15.1581 2.5C14.4822 2.5 13.9343 1.94036 13.9343 1.25C13.9343 0.559644 14.4822 0 15.1581 0C15.8339 0 16.3818 0.559644 16.3818 1.25C16.3818 1.94036 15.8339 2.5 15.1581 2.5Z" fill="#B2B2B2"/>
<path d="M10.524 2.5C9.84815 2.5 9.30025 1.94036 9.30025 1.25C9.30025 0.559644 9.84815 0 10.524 0C11.1999 0 11.7478 0.559644 11.7478 1.25C11.7478 1.94036 11.1999 2.5 10.524 2.5Z" fill="#B2B2B2"/>
<path d="M5.8668 2.5C5.19093 2.5 4.64302 1.94036 4.64302 1.25C4.64302 0.559644 5.19093 0 5.8668 0C6.54267 0 7.09058 0.559644 7.09058 1.25C7.09058 1.94036 6.54267 2.5 5.8668 2.5Z" fill="#B2B2B2"/>
<path d="M1.22373 2.5C0.547858 2.5 -4.57764e-05 1.94036 -4.57764e-05 1.25C-4.57764e-05 0.559644 0.547858 0 1.22373 0C1.89961 0 2.44751 0.559644 2.44751 1.25C2.44751 1.94036 1.89961 2.5 1.22373 2.5Z" fill="#B2B2B2"/>
</g>
<defs>
<clipPath id="clip0">
<rect width="35" height="2.5" transform="matrix(-1 0 0 1 35 0)" fill="white"/>
</clipPath>
</defs>
</svg>
